<?xml version="1.0" encoding="UTF-8"?>
<svg id="Layer_1" xmlns="http://www.w3.org/2000/svg" version="1.1" xmlns:xlink="http://www.w3.org/1999/xlink" viewBox="0 0 256 256">
  <!-- Generator: Adobe Illustrator 29.1.0, SVG Export Plug-In . SVG Version: 2.1.0 Build 142)  -->
  <defs>
    <style>
      .st0 {
        fill: url(#radial-gradient);
      }

      .st1 {
        fill: url(#radial-gradient5);
      }

      .st2 {
        fill: url(#radial-gradient1);
      }

      .st3 {
        fill: url(#radial-gradient2);
      }

      .st4 {
        fill: #0b5296;
      }

      .st5 {
        fill: url(#radial-gradient4);
      }

      .st6 {
        fill: url(#radial-gradient3);
      }
    </style>
    <radialGradient id="radial-gradient" cx="127.74" cy="141.24" fx="127.74" fy="141.24" r="134.35" gradientUnits="userSpaceOnUse">
      <stop offset=".71" stop-color="#c4c8ce"/>
      <stop offset=".78" stop-color="#bbbfc6"/>
      <stop offset=".89" stop-color="#a4aab0"/>
      <stop offset="1" stop-color="#899097"/>
    </radialGradient>
    <radialGradient id="radial-gradient1" cx="127.74" cy="141.24" fx="127.74" fy="141.24" r="134.35" gradientTransform="translate(61.93 336.11) rotate(-120)" xlink:href="#radial-gradient"/>
    <radialGradient id="radial-gradient2" cx="127.74" fx="127.74" r="134.35" gradientTransform="translate(322.04 114.42) rotate(120)" xlink:href="#radial-gradient"/>
    <radialGradient id="radial-gradient3" cx="188.07" cy="185.17" fx="188.07" fy="185.17" r="49.26" gradientUnits="userSpaceOnUse">
      <stop offset="0" stop-color="#1b3e6f"/>
      <stop offset="1" stop-color="#0b5296"/>
    </radialGradient>
    <radialGradient id="radial-gradient4" cx="133.59" cy="78.26" fx="133.59" fy="78.26" r="52.69" gradientUnits="userSpaceOnUse">
      <stop offset="0" stop-color="#0566a6"/>
      <stop offset="1" stop-color="#2e82c5"/>
    </radialGradient>
    <radialGradient id="radial-gradient5" cx="61" cy="101.63" fx="61" fy="101.63" r="109.03" gradientTransform="translate(-6.23 121.97) rotate(-46.56) scale(1 .34)" gradientUnits="userSpaceOnUse">
      <stop offset="0" stop-color="#9dd7ed"/>
      <stop offset="1" stop-color="#36bbed"/>
    </radialGradient>
  </defs>
  <path class="st0" d="M153.03,22.89c-1.58-2.34-4.01-3.96-6.78-4.49-4.3-.82-11.22-1.88-18.24-1.88s-13.94,1.06-18.24,1.88c-2.77.53-5.2,2.15-6.78,4.49l-31.64,46.84c-1.36,2.01,1.04,4.43,3.06,3.09l8.47-5.62c.05-.04.11-.07.17-.1,12.99-7.4,29.4-11.47,44.96-11.47s31.97,4.07,44.96,11.47c.06.03.11.07.17.1l8.47,5.62c2.02,1.34,4.42-1.08,3.06-3.09l-31.64-46.84Z"/>
  <path class="st2" d="M5.24,192.14c-1.24,2.54-1.42,5.45-.49,8.12,1.44,4.14,3.98,10.66,7.49,16.74s7.89,11.54,10.75,14.86c1.84,2.14,4.46,3.43,7.28,3.63l56.38,3.98c2.42.17,3.32-3.12,1.14-4.2l-9.1-4.52c-.06-.03-.12-.06-.17-.09-12.9-7.55-24.63-19.72-32.42-33.2-7.78-13.48-12.46-29.72-12.55-44.67,0-.07,0-.13,0-.2l.64-10.14c.15-2.42-3.14-3.29-4.21-1.11l-24.74,50.81Z"/>
  <path class="st3" d="M225.7,235.5c2.81-.2,5.43-1.5,7.28-3.63,2.86-3.32,7.24-8.78,10.75-14.86s6.05-12.6,7.49-16.74c.93-2.66.74-5.58-.49-8.12l-24.74-50.81c-1.06-2.18-4.36-1.31-4.21,1.11l.64,10.14c0,.07,0,.13,0,.2-.09,14.95-4.76,31.19-12.55,44.67-7.78,13.48-19.51,25.65-32.42,33.2-.06.03-.11.06-.17.09l-9.1,4.52c-2.18,1.08-1.28,4.37,1.14,4.2l56.38-3.98Z"/>
  <path class="st6" d="M136.99,205.55c6.53-1.05,12.98-3.3,19.06-6.81,15.97-9.22,25.69-25.11,27.67-42.11l24.77,14.43c-5.83,22.49-21.01,42.52-43.88,53.79-8.74,4.31-17.95,6.91-27.22,7.93"/>
  <path class="st5" d="M180.15,214.95c2.01-12.8.95-25.82-2.89-37.97-4.42-13.9-12.49-26.69-23.79-36.79-1.6-1.42-1.31-4,.54-5.06l19.72-11.39c1.59-.92,2.05-2.99,1.04-4.53-4.63-7.03-10.93-13.11-18.73-17.61-15.97-9.22-34.59-9.69-50.3-2.91l.11-28.66c22.39-6.2,47.33-3.06,68.52,11.11,35.48,23.73,47.1,71.49,26.59,108.93-5.43,9.91-12.54,18.26-20.81,24.87Z"/>
  <path class="st1" d="M158.03,72.63c-12.09,4.66-22.83,12.09-31.43,21.49-9.83,10.78-16.87,24.16-19.96,39-.44,2.09-2.81,3.13-4.66,2.06l-19.72-11.39c-1.59-.92-3.62-.28-4.44,1.36-3.78,7.52-5.88,16.02-5.88,25.03,0,18.45,8.9,34.8,22.63,45.02l-24.88,14.23c-16.56-16.29-26.32-39.45-24.64-64.89,2.81-42.59,38.36-76.53,81.04-77.5,11.3-.25,22.08,1.73,31.95,5.59Z"/>
  <path class="st4" d="M137.38,232.78c-31.31,3.44-63.31-11.22-80.41-39.36-5.87-9.66-9.55-19.99-11.13-30.46,10.08,8.14,21.89,13.73,34.33,16.48,14.25,3.12,29.36,2.53,43.75-2.21,2.03-.67,4.11.86,4.11,3v22.77c0,1.84,1.56,3.27,3.4,3.17,1.86-.11,3.71-.31,5.56-.61"/>
</svg>